<svg width="194" height="29" viewBox="0 0 194 29" fill="none" xmlns="http://www.w3.org/2000/svg">
<path d="M39.4618 28.1365H36.3877V14.7857H36.2963L31.8165 27.9446H29.6452L25.1655 14.7857H25.0741V28.1365L22 27.6567V8.35708H25.9998L30.6852 22.3795H30.7766L35.462 8.35708H39.4618V28.1365Z" fill="white"/>
<path d="M47.0099 28.1365V21.3651L42.1748 7.67172L47.0099 8.01433L48.5578 15.1147L50.4611 7.67172H54.4089L50.4611 20.9265L50.1157 28.1365H47.0099Z" fill="white"/>
<path d="M59.234 29C58.7236 29 58.2893 28.7853 57.9313 28.3558C57.5732 27.9263 57.3942 27.4054 57.3942 26.7932C57.3942 26.1718 57.5732 25.6509 57.9313 25.2305C58.2893 24.8011 58.7236 24.5863 59.234 24.5863C59.7521 24.5863 60.1864 24.8011 60.5368 25.2305C60.8949 25.6509 61.0739 26.1718 61.0739 26.7932C61.0739 27.4054 60.8949 27.9263 60.5368 28.3558C60.1787 28.7853 59.7445 29 59.234 29Z" fill="white"/>
<path d="M83.7021 28.3558H80.628V15.005H80.5366L76.0569 28.1639H73.8856L69.4059 15.005H69.3145V28.3558H66.2404V8.57639H70.2401L74.9255 22.5988H75.017L79.7024 8.57639H83.7021V28.3558Z" fill="white"/>
<path d="M91.9406 20.9539C91.9406 22.2424 92.2415 23.2567 92.8434 23.9969C93.4529 24.7645 94.3061 25.1483 95.4032 25.1483C96.4927 25.1483 97.3421 24.7645 97.9516 23.9969C98.5535 23.2567 98.8544 22.2424 98.8544 20.9539V8.57639H102.306V21.3651C102.306 23.5583 101.681 25.3265 100.431 26.6698C99.1744 28.0222 97.4983 28.6984 95.4032 28.6984C93.3005 28.6984 91.6206 28.0222 90.3635 26.6698C89.1141 25.3265 88.4894 23.5583 88.4894 21.3651V8.57639H91.9406V20.9539Z" fill="white"/>
<path d="M110.451 22.5028C110.527 23.3069 110.885 23.9603 111.525 24.4629C112.157 24.9563 112.934 25.2031 113.856 25.2031C114.77 25.2031 115.517 24.9655 116.096 24.4903C116.667 24.0242 116.953 23.4257 116.953 22.6947C116.953 22.055 116.74 21.5387 116.313 21.1458C115.886 20.7528 115.174 20.4238 114.176 20.1588L112.028 19.5968C109.003 18.8201 107.491 16.9788 107.491 14.0729C107.491 12.2635 108.081 10.7969 109.262 9.67289C110.435 8.56718 111.948 8.01433 113.799 8.01433C115.704 8.01433 117.227 8.55805 118.37 9.64548C119.498 10.7238 120.077 12.163 120.107 13.9632H116.873C116.82 13.1317 116.511 12.4737 115.947 11.9894C115.391 11.5142 114.679 11.2766 113.81 11.2766C112.957 11.2766 112.271 11.5005 111.753 11.9483C111.228 12.396 110.965 12.9854 110.965 13.7165C110.965 14.3196 111.178 14.8131 111.605 15.1969C112.024 15.5624 112.709 15.8776 113.662 16.1427L115.662 16.6498C117.315 17.0702 118.519 17.7281 119.273 18.6236C120.027 19.51 120.404 20.7071 120.404 22.2149C120.404 24.1339 119.802 25.6554 118.599 26.7794C117.395 27.9125 115.768 28.4791 113.719 28.4791C111.731 28.4791 110.15 27.9491 108.976 26.889C107.796 25.8199 107.178 24.3578 107.125 22.5028H110.451Z" fill="white"/>
<path d="M124.4 26.7794V7H127.851V26.7794H124.4Z" fill="white"/>
<path d="M139.743 28.1365C137.336 28.1365 135.435 27.2272 134.041 25.4087C132.639 23.5811 131.938 21.0773 131.938 17.8972C131.938 14.7263 132.643 12.2271 134.052 10.3994C135.446 8.58096 137.343 7.67172 139.743 7.67172C141.739 7.67172 143.412 8.35708 144.76 9.72779C146.116 11.1168 146.859 12.9124 146.989 15.1147H143.629C143.469 13.8993 143.035 12.9261 142.326 12.1951C141.61 11.464 140.749 11.0985 139.743 11.0985C138.441 11.0985 137.401 11.7062 136.624 12.9215C135.846 14.1552 135.458 15.8092 135.458 17.8835C135.458 19.9944 135.843 21.6576 136.612 22.8729C137.382 24.0974 138.429 24.7097 139.755 24.7097C140.776 24.7097 141.633 24.3716 142.326 23.6953C143.019 23.0191 143.457 22.0962 143.64 20.9265H147C146.81 23.1288 146.059 24.8833 144.749 26.19C143.438 27.4876 141.77 28.1365 139.743 28.1365Z" fill="white"/>
<path fill-rule="evenodd" clip-rule="evenodd" d="M167.565 8.59397C168.833 8.58536 170.09 8.82719 171.263 9.30561C172.44 9.78498 173.509 10.4924 174.411 11.3871C175.312 12.2818 176.028 13.3461 176.516 14.5186C177.004 15.6911 177.256 16.9486 177.256 18.2188V23.25C177.256 23.8965 176.999 24.5165 176.542 24.9736C176.085 25.4307 175.465 25.6875 174.818 25.6875H173.381C172.734 25.6875 172.114 25.4307 171.657 24.9736C171.2 24.5165 170.943 23.8965 170.943 23.25V19.6563C170.943 19.0098 171.2 18.3898 171.657 17.9327C172.114 17.4756 172.734 17.2188 173.381 17.2188H175.19C175.102 16.5564 174.928 15.9069 174.67 15.2874C174.283 14.3586 173.716 13.5154 173.002 12.8067C172.288 12.0979 171.44 11.5375 170.509 11.1577C169.577 10.7779 168.579 10.5863 167.573 10.594H167.558C166.552 10.5863 165.554 10.7779 164.622 11.1577C163.69 11.5375 162.843 12.0979 162.129 12.8067C161.415 13.5154 160.848 14.3586 160.461 15.2874C160.203 15.9069 160.028 16.5564 159.941 17.2188H161.75C162.396 17.2188 163.016 17.4756 163.474 17.9327C163.931 18.3898 164.187 19.0098 164.187 19.6563V23.25C164.187 23.8965 163.931 24.5165 163.474 24.9736C163.016 25.4307 162.396 25.6875 161.75 25.6875H160.312C159.666 25.6875 159.046 25.4307 158.589 24.9736C158.132 24.5165 157.875 23.8965 157.875 23.25V18.2188C157.875 16.9486 158.126 15.6911 158.615 14.5186C159.103 13.3461 159.818 12.2818 160.72 11.3871C161.621 10.4924 162.691 9.78498 163.867 9.30561C165.041 8.82719 166.298 8.58536 167.565 8.59397ZM159.875 19.2188V23.25C159.875 23.366 159.921 23.4773 160.003 23.5594C160.085 23.6414 160.196 23.6875 160.312 23.6875H161.75C161.866 23.6875 161.977 23.6414 162.059 23.5594C162.141 23.4773 162.187 23.366 162.187 23.25V19.6563C162.187 19.5402 162.141 19.4289 162.059 19.3469C161.977 19.2648 161.866 19.2188 161.75 19.2188H159.875ZM175.256 19.2188H173.381C173.265 19.2188 173.153 19.2648 173.071 19.3469C172.989 19.4289 172.943 19.5402 172.943 19.6563V23.25C172.943 23.366 172.989 23.4773 173.071 23.5594C173.153 23.6414 173.265 23.6875 173.381 23.6875H174.818C174.934 23.6875 175.046 23.6414 175.128 23.5594C175.21 23.4773 175.256 23.366 175.256 23.25V19.2188ZM167.565 9.594V9.59403V9.594Z" fill="white"/>
</svg>
