<svg width="194" height="29" viewBox="0 0 194 29" fill="none" xmlns="http://www.w3.org/2000/svg">
<path d="M36.9618 26.7937H33.8877V13.443H33.7963L29.3165 26.6018H27.1452L22.6655 13.443H22.5741V26.7937L19.5 26.314V7.01436H23.4998L28.1852 21.0367H28.2766L32.962 7.01436H36.9618V26.7937Z" fill="white"/>
<path d="M45.4274 27.4791V20.5365L40.5 7.57639L45.4274 7.57642L47 15.6498L48.8786 7.57642H53.3942L48.8786 20.0978V27.4791H45.4274Z" fill="white"/>
<path d="M55.2341 28C54.7236 28 54.2894 27.7853 53.9313 27.3558C53.5732 26.9263 53.3942 26.4054 53.3942 25.7932C53.3942 25.1718 53.5732 24.6509 53.9313 24.2306C54.2894 23.8011 54.7236 23.5863 55.2341 23.5863C55.7521 23.5863 56.1864 23.8011 56.5368 24.2306C56.8949 24.6509 57.074 25.1718 57.074 25.7932C57.074 26.4054 56.8949 26.9263 56.5368 27.3558C56.1788 27.7853 55.7445 28 55.2341 28Z" fill="white"/>
<path d="M79.7021 27.3558H76.6281V14.0051H76.5366L72.0569 27.1639H69.8856L65.4059 14.0051H65.3145V27.3558H62.2404V7.57642H66.2401L70.9256 21.5988H71.017L75.7024 7.57642H79.7021V27.3558Z" fill="white"/>
<path d="M87.9406 19.954C87.9406 21.2424 88.2415 22.2568 88.8434 22.9969C89.4529 23.7645 90.3062 24.1483 91.4032 24.1483C92.4927 24.1483 93.3422 23.7645 93.9516 22.9969C94.5535 22.2568 94.8544 21.2424 94.8544 19.954V7.57642H98.3057V20.3652C98.3057 22.5583 97.6809 24.3265 96.4315 25.6698C95.1744 27.0223 93.4983 27.6985 91.4032 27.6985C89.3005 27.6985 87.6206 27.0223 86.3635 25.6698C85.1141 24.3265 84.4894 22.5583 84.4894 20.3652V7.57642H87.9406V19.954Z" fill="white"/>
<path d="M106.451 21.5028C106.527 22.3069 106.885 22.9603 107.525 23.4629C108.157 23.9564 108.934 24.2031 109.856 24.2031C110.77 24.2031 111.517 23.9655 112.096 23.4903C112.667 23.0243 112.953 22.4257 112.953 21.6947C112.953 21.055 112.74 20.5387 112.313 20.1458C111.886 19.7528 111.174 19.4239 110.176 19.1589L108.028 18.5969C105.003 17.8201 103.491 15.9788 103.491 13.0729C103.491 11.2636 104.081 9.79691 105.262 8.67292C106.435 7.56722 107.948 7.01436 109.799 7.01436C111.704 7.01436 113.227 7.55808 114.37 8.64551C115.498 9.7238 116.077 11.1631 116.107 12.9633H112.873C112.82 12.1317 112.511 11.4737 111.947 10.9894C111.391 10.5142 110.679 10.2767 109.81 10.2767C108.957 10.2767 108.271 10.5005 107.753 10.9483C107.228 11.3961 106.965 11.9855 106.965 12.7165C106.965 13.3196 107.178 13.8131 107.605 14.1969C108.024 14.5624 108.71 14.8777 109.662 15.1427L111.662 15.6498C113.315 16.0702 114.519 16.7281 115.273 17.6237C116.027 18.5101 116.404 19.7072 116.404 21.2149C116.404 23.1339 115.802 24.6554 114.599 25.7794C113.395 26.9125 111.768 27.4791 109.719 27.4791C107.731 27.4791 106.15 26.9491 104.976 25.8891C103.796 24.8199 103.178 23.3578 103.125 21.5028H106.451Z" fill="white"/>
<path d="M122 27.3558V17.4661V7.57639H125.451V27.3558H122Z" fill="white"/>
<path d="M137.846 27.1365C135.439 27.1365 133.538 26.2272 132.144 24.4088C130.742 22.5812 130.041 20.0773 130.041 16.8973C130.041 13.7264 130.746 11.2271 132.155 9.39947C133.549 7.58099 135.446 6.67175 137.846 6.67175C139.842 6.67175 141.514 7.35711 142.863 8.72782C144.219 10.1168 144.962 11.9124 145.091 14.1147H141.732C141.572 12.8994 141.137 11.9261 140.429 11.1951C139.713 10.4641 138.852 10.0985 137.846 10.0985C136.543 10.0985 135.503 10.7062 134.726 11.9216C133.949 13.1552 133.561 14.8092 133.561 16.8836C133.561 18.9945 133.945 20.6576 134.715 21.8729C135.484 23.0975 136.532 23.7097 137.857 23.7097C138.878 23.7097 139.735 23.3716 140.429 22.6954C141.122 22.0192 141.56 21.0962 141.743 19.9265H145.103C144.912 22.1288 144.162 23.8833 142.851 25.1901C141.541 26.4877 139.873 27.1365 137.846 27.1365Z" fill="white"/>
<path fill-rule="evenodd" clip-rule="evenodd" d="M167.565 8.59397C168.833 8.58536 170.09 8.82719 171.263 9.30561C172.44 9.78498 173.509 10.4924 174.411 11.3871C175.312 12.2818 176.028 13.3461 176.516 14.5186C177.004 15.6911 177.256 16.9486 177.256 18.2188V23.25C177.256 23.8965 176.999 24.5165 176.542 24.9736C176.085 25.4307 175.465 25.6875 174.818 25.6875H173.381C172.734 25.6875 172.114 25.4307 171.657 24.9736C171.2 24.5165 170.943 23.8965 170.943 23.25V19.6563C170.943 19.0098 171.2 18.3898 171.657 17.9327C172.114 17.4756 172.734 17.2188 173.381 17.2188H175.19C175.102 16.5564 174.928 15.9069 174.67 15.2874C174.283 14.3586 173.716 13.5154 173.002 12.8067C172.288 12.0979 171.44 11.5375 170.509 11.1577C169.577 10.7779 168.579 10.5863 167.573 10.594H167.558C166.552 10.5863 165.554 10.7779 164.622 11.1577C163.69 11.5375 162.843 12.0979 162.129 12.8067C161.415 13.5154 160.848 14.3586 160.461 15.2874C160.203 15.9069 160.028 16.5564 159.941 17.2188H161.75C162.396 17.2188 163.016 17.4756 163.474 17.9327C163.931 18.3898 164.187 19.0098 164.187 19.6563V23.25C164.187 23.8965 163.931 24.5165 163.474 24.9736C163.016 25.4307 162.396 25.6875 161.75 25.6875H160.312C159.666 25.6875 159.046 25.4307 158.589 24.9736C158.132 24.5165 157.875 23.8965 157.875 23.25V18.2188C157.875 16.9486 158.126 15.6911 158.615 14.5186C159.103 13.3461 159.818 12.2818 160.72 11.3871C161.621 10.4924 162.691 9.78498 163.867 9.30561C165.041 8.82719 166.298 8.58536 167.565 8.59397ZM159.875 19.2188V23.25C159.875 23.366 159.921 23.4773 160.003 23.5594C160.085 23.6414 160.196 23.6875 160.312 23.6875H161.75C161.866 23.6875 161.977 23.6414 162.059 23.5594C162.141 23.4773 162.187 23.366 162.187 23.25V19.6563C162.187 19.5402 162.141 19.4289 162.059 19.3469C161.977 19.2648 161.866 19.2188 161.75 19.2188H159.875ZM175.256 19.2188H173.381C173.265 19.2188 173.153 19.2648 173.071 19.3469C172.989 19.4289 172.943 19.5402 172.943 19.6563V23.25C172.943 23.366 172.989 23.4773 173.071 23.5594C173.153 23.6414 173.265 23.6875 173.381 23.6875H174.818C174.934 23.6875 175.046 23.6414 175.128 23.5594C175.21 23.4773 175.256 23.366 175.256 23.25V19.2188ZM167.565 9.594V9.59403V9.594Z" fill="white"/>
</svg>
